<svg width="126" height="94" viewBox="0 0 126 94" fill="none" xmlns="http://www.w3.org/2000/svg">
<path d="M39.904 93.792C32.224 93.792 25.3973 91.9573 19.424 88.288C13.4507 84.6187 8.75733 79.2853 5.344 72.288C2.016 65.2053 0.352 56.8427 0.352 47.2C0.352 37.5573 2.016 29.2373 5.344 22.24C8.75733 15.1573 13.4507 9.78133 19.424 6.112C25.3973 2.44266 32.224 0.607994 39.904 0.607994C47.4987 0.607994 54.2827 2.44266 60.256 6.112C66.2293 9.78133 70.88 15.1573 74.208 22.24C77.6213 29.2373 79.328 37.5573 79.328 47.2C79.328 56.8427 77.6213 65.2053 74.208 72.288C70.88 79.2853 66.2293 84.6187 60.256 88.288C54.2827 91.9573 47.4987 93.792 39.904 93.792ZM39.904 73.056C44.1707 73.056 47.5413 71.008 50.016 66.912C52.576 62.7307 53.856 56.16 53.856 47.2C53.856 38.24 52.576 31.712 50.016 27.616C47.5413 23.4347 44.1707 21.344 39.904 21.344C35.552 21.344 32.096 23.4347 29.536 27.616C27.0613 31.712 25.824 38.24 25.824 47.2C25.824 56.16 27.0613 62.7307 29.536 66.912C32.096 71.008 35.552 73.056 39.904 73.056ZM125.377 2.39999V92H100.033V21.984H83.393V2.39999H125.377Z" fill="url(#paint0_linear_1_177898)"/>
<defs>
<linearGradient id="paint0_linear_1_177898" x1="-4" y1="46" x2="135" y2="46" gradientUnits="userSpaceOnUse">
<stop stop-color="#E8E8E8" stop-opacity="0"/>
<stop offset="0.75" stop-color="#E8E8E8"/>
</linearGradient>
</defs>
</svg>
