<svg width="157" height="94" viewBox="0 0 157 94" fill="none" xmlns="http://www.w3.org/2000/svg">
<path d="M39.904 93.792C32.224 93.792 25.3973 91.9573 19.424 88.288C13.4507 84.6187 8.75733 79.2853 5.344 72.288C2.016 65.2053 0.352 56.8427 0.352 47.2C0.352 37.5573 2.016 29.2373 5.344 22.24C8.75733 15.1573 13.4507 9.78133 19.424 6.112C25.3973 2.44266 32.224 0.607994 39.904 0.607994C47.4987 0.607994 54.2827 2.44266 60.256 6.112C66.2293 9.78133 70.88 15.1573 74.208 22.24C77.6213 29.2373 79.328 37.5573 79.328 47.2C79.328 56.8427 77.6213 65.2053 74.208 72.288C70.88 79.2853 66.2293 84.6187 60.256 88.288C54.2827 91.9573 47.4987 93.792 39.904 93.792ZM39.904 73.056C44.1707 73.056 47.5413 71.008 50.016 66.912C52.576 62.7307 53.856 56.16 53.856 47.2C53.856 38.24 52.576 31.712 50.016 27.616C47.5413 23.4347 44.1707 21.344 39.904 21.344C35.552 21.344 32.096 23.4347 29.536 27.616C27.0613 31.712 25.824 38.24 25.824 47.2C25.824 56.16 27.0613 62.7307 29.536 66.912C32.096 71.008 35.552 73.056 39.904 73.056ZM156.225 71.904V92H86.465V76.128L120.001 44.768C123.244 41.696 125.42 39.0933 126.529 36.96C127.638 34.7413 128.193 32.5227 128.193 30.304C128.193 27.4027 127.212 25.1413 125.249 23.52C123.286 21.8987 120.428 21.088 116.673 21.088C113.345 21.088 110.273 21.856 107.457 23.392C104.726 24.8427 102.465 26.976 100.673 29.792L81.857 19.296C85.3557 13.4933 90.2623 8.928 96.577 5.6C102.892 2.272 110.358 0.607994 118.977 0.607994C125.804 0.607994 131.82 1.71733 137.025 3.936C142.316 6.15466 146.412 9.35466 149.313 13.536C152.3 17.632 153.793 22.4107 153.793 27.872C153.793 32.736 152.726 37.344 150.593 41.696C148.545 45.9627 144.534 50.8267 138.561 56.288L121.665 71.904H156.225Z" fill="url(#paint0_linear_1_177899)"/>
<defs>
<linearGradient id="paint0_linear_1_177899" x1="-4" y1="46" x2="160" y2="46" gradientUnits="userSpaceOnUse">
<stop stop-color="#E8E8E8" stop-opacity="0"/>
<stop offset="0.75" stop-color="#E8E8E8"/>
</linearGradient>
</defs>
</svg>
