<svg width="20" height="47" viewBox="0 0 20 47" fill="none" xmlns="http://www.w3.org/2000/svg">
<mask id="path-1-outside-1_1_218179" maskUnits="userSpaceOnUse" x="0" y="0" width="20" height="47" fill="black">
<rect fill="white" width="20" height="47"/>
<path d="M18.1163 1.2V46H11.7803V6.768H1.66825V1.2H18.1163Z"/>
</mask>
<path d="M18.1163 1.2H19.1163V0.199997H18.1163V1.2ZM18.1163 46V47H19.1163V46H18.1163ZM11.7803 46H10.7803V47H11.7803V46ZM11.7803 6.768H12.7803V5.768H11.7803V6.768ZM1.66825 6.768H0.66825V7.768H1.66825V6.768ZM1.66825 1.2V0.199997H0.66825V1.2H1.66825ZM18.1163 1.2H17.1163V46H18.1163H19.1163V1.2H18.1163ZM18.1163 46V45H11.7803V46V47H18.1163V46ZM11.7803 46H12.7803V6.768H11.7803H10.7803V46H11.7803ZM11.7803 6.768V5.768H1.66825V6.768V7.768H11.7803V6.768ZM1.66825 6.768H2.66825V1.2H1.66825H0.66825V6.768H1.66825ZM1.66825 1.2V2.2H18.1163V1.2V0.199997H1.66825V1.2Z" fill="white" mask="url(#path-1-outside-1_1_218179)"/>
</svg>
