<svg width="37" height="48" viewBox="0 0 37 48" fill="none" xmlns="http://www.w3.org/2000/svg">
<mask id="path-1-outside-1_1_218180" maskUnits="userSpaceOnUse" x="0" y="0" width="37" height="48" fill="black">
<rect fill="white" width="37" height="48"/>
<path d="M35.185 41.432V47H2.993V42.648L21.233 25.048C23.4517 22.9147 24.945 21.08 25.713 19.544C26.481 17.9653 26.865 16.3867 26.865 14.808C26.865 12.4613 26.033 10.648 24.369 9.368C22.7477 8.04533 20.401 7.384 17.329 7.384C12.3797 7.384 8.561 9.00533 5.873 12.248L1.521 8.472C3.27033 6.33867 5.553 4.67467 8.369 3.48C11.2277 2.28533 14.4063 1.688 17.905 1.688C22.5983 1.688 26.3317 2.81867 29.105 5.08C31.8783 7.29866 33.265 10.328 33.265 14.168C33.265 16.5573 32.753 18.8187 31.729 20.952C30.705 23.0853 28.7637 25.5173 25.905 28.248L12.209 41.432H35.185Z"/>
</mask>
<path d="M35.185 41.432H36.185V40.432H35.185V41.432ZM35.185 47V48H36.185V47H35.185ZM2.993 47H1.993V48H2.993V47ZM2.993 42.648L2.29863 41.9284L1.993 42.2233V42.648H2.993ZM21.233 25.048L20.5399 24.3272L20.5386 24.3284L21.233 25.048ZM25.713 19.544L26.6075 19.9912L26.6122 19.9815L25.713 19.544ZM24.369 9.368L23.7369 10.1429L23.748 10.1519L23.7593 10.1606L24.369 9.368ZM5.873 12.248L5.21765 13.0033L5.99016 13.6736L6.64288 12.8862L5.873 12.248ZM1.521 8.472L0.747733 7.83792L0.131059 8.58996L0.865647 9.22732L1.521 8.472ZM8.369 3.48L7.9834 2.55732L7.97845 2.55942L8.369 3.48ZM29.105 5.08L28.473 5.85505L28.4803 5.86087L29.105 5.08ZM31.729 20.952L32.6305 21.3847L31.729 20.952ZM25.905 28.248L25.2143 27.5249L25.2115 27.5276L25.905 28.248ZM12.209 41.432L11.5155 40.7116L9.72823 42.432H12.209V41.432ZM35.185 41.432H34.185V47H35.185H36.185V41.432H35.185ZM35.185 47V46H2.993V47V48H35.185V47ZM2.993 47H3.993V42.648H2.993H1.993V47H2.993ZM2.993 42.648L3.68737 43.3676L21.9274 25.7676L21.233 25.048L20.5386 24.3284L2.29863 41.9284L2.993 42.648ZM21.233 25.048L21.9261 25.7688C24.1726 23.6087 25.7631 21.68 26.6074 19.9912L25.713 19.544L24.8186 19.0968C24.1269 20.48 22.7307 22.2206 20.5399 24.3272L21.233 25.048ZM25.713 19.544L26.6122 19.9815C27.439 18.2819 27.865 16.5545 27.865 14.808H26.865H25.865C25.865 16.2188 25.523 17.6487 24.8138 19.1065L25.713 19.544ZM26.865 14.808H27.865C27.865 12.1927 26.9202 10.0688 24.9787 8.57538L24.369 9.368L23.7593 10.1606C25.1458 11.2272 25.865 12.73 25.865 14.808H26.865ZM24.369 9.368L25.0011 8.59313C23.1344 7.07027 20.5269 6.384 17.329 6.384V7.384V8.384C20.2751 8.384 22.3609 9.0204 23.7369 10.1429L24.369 9.368ZM17.329 7.384V6.384C12.1399 6.384 8.01521 8.09681 5.10312 11.6098L5.873 12.248L6.64288 12.8862C9.10679 9.91385 12.6194 8.384 17.329 8.384V7.384ZM5.873 12.248L6.52835 11.4927L2.17635 7.71667L1.521 8.472L0.865647 9.22732L5.21765 13.0033L5.873 12.248ZM1.521 8.472L2.29427 9.10608C3.9303 7.11092 6.07595 5.53908 8.75955 4.40058L8.369 3.48L7.97845 2.55942C5.03005 3.81025 2.61037 5.56641 0.747733 7.83792L1.521 8.472ZM8.369 3.48L8.75459 4.40267C11.4763 3.26524 14.5217 2.688 17.905 2.688V1.688V0.688C14.291 0.688 10.979 1.30543 7.98341 2.55733L8.369 3.48ZM17.905 1.688V2.688C22.4405 2.688 25.9272 3.77918 28.4731 5.85502L29.105 5.08L29.7369 4.30498C26.7361 1.85815 22.7562 0.688 17.905 0.688V1.688ZM29.105 5.08L28.4803 5.86087C30.9952 7.87277 32.265 10.6035 32.265 14.168H33.265H34.265C34.265 10.0525 32.7615 6.72456 29.7297 4.29913L29.105 5.08ZM33.265 14.168H32.265C32.265 16.409 31.786 18.5223 30.8275 20.5193L31.729 20.952L32.6305 21.3847C33.72 19.115 34.265 16.7056 34.265 14.168H33.265ZM31.729 20.952L30.8275 20.5193C29.8791 22.495 28.0362 24.8293 25.2143 27.5249L25.905 28.248L26.5957 28.9711C29.4911 26.2054 31.5309 23.6757 32.6305 21.3847L31.729 20.952ZM25.905 28.248L25.2115 27.5276L11.5155 40.7116L12.209 41.432L12.9025 42.1524L26.5985 28.9684L25.905 28.248ZM12.209 41.432V42.432H35.185V41.432V40.432H12.209V41.432Z" fill="white" mask="url(#path-1-outside-1_1_218180)"/>
</svg>
