<svg width="37" height="48" viewBox="0 0 37 48" fill="none" xmlns="http://www.w3.org/2000/svg">
<mask id="path-1-outside-1_1_218181" maskUnits="userSpaceOnUse" x="0" y="0" width="37" height="48" fill="black">
<rect fill="white" width="37" height="48"/>
<path d="M21.9115 20.016C26.3062 20.4427 29.6555 21.808 31.9595 24.112C34.2635 26.3733 35.4155 29.2747 35.4155 32.816C35.4155 35.376 34.7755 37.7013 33.4955 39.792C32.2155 41.84 30.2955 43.4827 27.7355 44.72C25.2182 45.9147 22.1248 46.512 18.4555 46.512C15.2555 46.512 12.1835 46.0427 9.2395 45.104C6.2955 44.1227 3.88483 42.7787 2.0075 41.072L4.9515 36.016C6.4875 37.4667 8.45017 38.64 10.8395 39.536C13.2288 40.3893 15.7675 40.816 18.4555 40.816C21.7835 40.816 24.3648 40.112 26.1995 38.704C28.0768 37.296 29.0155 35.3547 29.0155 32.88C29.0155 30.4053 28.0982 28.4853 26.2635 27.12C24.4288 25.7547 21.6555 25.072 17.9435 25.072H14.3595V20.592L25.6235 6.768H4.0555V1.2H33.6235V5.552L21.9115 20.016Z"/>
</mask>
<path d="M21.9115 20.016L21.1343 19.3867L19.9643 20.8317L21.8149 21.0113L21.9115 20.016ZM31.9595 24.112L31.2524 24.8191L31.259 24.8257L31.9595 24.112ZM33.4955 39.792L34.3435 40.322L34.3484 40.3142L33.4955 39.792ZM27.7355 44.72L28.1643 45.6234L28.1707 45.6203L27.7355 44.72ZM9.2395 45.104L8.92325 46.0528L8.93573 46.0567L9.2395 45.104ZM2.0075 41.072L1.14332 40.5688L0.736302 41.2678L1.33483 41.8119L2.0075 41.072ZM4.9515 36.016L5.63812 35.289L4.72165 34.4234L4.08732 35.5128L4.9515 36.016ZM10.8395 39.536L10.4884 40.4723L10.4957 40.4751L10.5032 40.4777L10.8395 39.536ZM26.1995 38.704L25.5995 37.9039L25.5907 37.9107L26.1995 38.704ZM26.2635 27.12L25.6665 27.9222L26.2635 27.12ZM14.3595 25.072H13.3595V26.072H14.3595V25.072ZM14.3595 20.592L13.5843 19.9603L13.3595 20.2362V20.592H14.3595ZM25.6235 6.768L26.3987 7.39967L27.7282 5.768H25.6235V6.768ZM4.0555 6.768H3.0555V7.768H4.0555V6.768ZM4.0555 1.2V0.199997H3.0555V1.2H4.0555ZM33.6235 1.2H34.6235V0.199997H33.6235V1.2ZM33.6235 5.552L34.4007 6.1813L34.6235 5.9061V5.552H33.6235ZM21.9115 20.016L21.8149 21.0113C26.0606 21.4235 29.1623 22.729 31.2524 24.8191L31.9595 24.112L32.6666 23.4049C30.1487 20.887 26.5517 19.4618 22.0081 19.0207L21.9115 20.016ZM31.9595 24.112L31.259 24.8257C33.3519 26.8798 34.4155 29.5144 34.4155 32.816H35.4155H36.4155C36.4155 29.0349 35.1751 25.8669 32.66 23.3983L31.9595 24.112ZM35.4155 32.816H34.4155C34.4155 35.2003 33.8221 37.3435 32.6427 39.2698L33.4955 39.792L34.3484 40.3142C35.7289 38.0592 36.4155 35.5517 36.4155 32.816H35.4155ZM33.4955 39.792L32.6475 39.262C31.484 41.1236 29.7211 42.6496 27.3003 43.8197L27.7355 44.72L28.1707 45.6203C30.8699 44.3157 32.947 42.5564 34.3435 40.322L33.4955 39.792ZM27.7355 44.72L27.3068 43.8166C24.9588 44.9308 22.0215 45.512 18.4555 45.512V46.512V47.512C22.2282 47.512 25.4775 46.8985 28.1642 45.6234L27.7355 44.72ZM18.4555 46.512V45.512C15.3549 45.512 12.3856 45.0575 9.54327 44.1513L9.2395 45.104L8.93573 46.0567C11.9814 47.0278 15.1561 47.512 18.4555 47.512V46.512ZM9.2395 45.104L9.55573 44.1553C6.71502 43.2084 4.43423 41.9267 2.68017 40.3321L2.0075 41.072L1.33483 41.8119C3.33544 43.6307 5.87598 45.0369 8.92327 46.0527L9.2395 45.104ZM2.0075 41.072L2.87168 41.5752L5.81568 36.5192L4.9515 36.016L4.08732 35.5128L1.14332 40.5688L2.0075 41.072ZM4.9515 36.016L4.26488 36.743C5.91555 38.302 7.99971 39.5391 10.4884 40.4723L10.8395 39.536L11.1906 38.5997C8.90063 37.7409 7.05945 36.6314 5.63812 35.289L4.9515 36.016ZM10.8395 39.536L10.5032 40.4777C13.0067 41.3719 15.6597 41.816 18.4555 41.816V40.816V39.816C15.8753 39.816 13.4509 39.4068 11.1758 38.5943L10.8395 39.536ZM18.4555 40.816V41.816C21.9101 41.816 24.737 41.0869 26.8083 39.4973L26.1995 38.704L25.5907 37.9107C23.9927 39.1371 21.6569 39.816 18.4555 39.816V40.816ZM26.1995 38.704L26.7995 39.504C28.9443 37.8954 30.0155 35.6494 30.0155 32.88H29.0155H28.0155C28.0155 35.06 27.2094 36.6966 25.5995 37.904L26.1995 38.704ZM29.0155 32.88H30.0155C30.0155 30.1194 28.972 27.8891 26.8605 26.3178L26.2635 27.12L25.6665 27.9222C27.2244 29.0816 28.0155 30.6913 28.0155 32.88H29.0155ZM26.2635 27.12L26.8605 26.3178C24.7754 24.766 21.7473 24.072 17.9435 24.072V25.072V26.072C21.5637 26.072 24.0823 26.7433 25.6665 27.9222L26.2635 27.12ZM17.9435 25.072V24.072H14.3595V25.072V26.072H17.9435V25.072ZM14.3595 25.072H15.3595V20.592H14.3595H13.3595V25.072H14.3595ZM14.3595 20.592L15.1347 21.2237L26.3987 7.39967L25.6235 6.768L24.8483 6.13632L13.5843 19.9603L14.3595 20.592ZM25.6235 6.768V5.768H4.0555V6.768V7.768H25.6235V6.768ZM4.0555 6.768H5.0555V1.2H4.0555H3.0555V6.768H4.0555ZM4.0555 1.2V2.2H33.6235V1.2V0.199997H4.0555V1.2ZM33.6235 1.2H32.6235V5.552H33.6235H34.6235V1.2H33.6235ZM33.6235 5.552L32.8463 4.9227L21.1343 19.3867L21.9115 20.016L22.6887 20.6453L34.4007 6.1813L33.6235 5.552Z" fill="white" mask="url(#path-1-outside-1_1_218181)"/>
</svg>
