<svg width="546" height="346" viewBox="0 0 546 346" fill="none" xmlns="http://www.w3.org/2000/svg">
<path d="M1.04144 72.5981L39.6057 139.393L128.398 139.533L164.187 77.5444L119.669 0.71821L110.576 0.718435M252.898 211.413L288.688 149.424L377.48 149.564L416.044 216.359M382.186 300.828L416.988 361.108L506.71 360.752L544.746 294.871L537.841 282.912M302.261 294.87L371.867 294.87L416.805 217.034L407.034 200.109M173.653 216.825L243.258 216.825L287.81 294.704L253.188 354.671M0.77249 216.824L38.8089 150.943L128.531 150.587L163.333 210.867L118.394 288.704L109.582 288.705" stroke="url(#paint0_linear_1_174560)" stroke-opacity="0.3" stroke-miterlimit="10" stroke-linecap="square"/>
<defs>
<linearGradient id="paint0_linear_1_174560" x1="566" y1="383.5" x2="-8.49952" y2="52" gradientUnits="userSpaceOnUse">
<stop stop-color="white"/>
<stop offset="1" stop-color="white" stop-opacity="0"/>
</linearGradient>
</defs>
</svg>
