<svg width="434" height="254" viewBox="0 0 434 254" fill="none" xmlns="http://www.w3.org/2000/svg">
<path d="M73.0259 -249.164L73.0264 -172.036L149.852 -127.518L211.841 -163.307L211.701 -252.099L203.825 -256.646M221.733 -3.01816L283.722 -38.8075L360.548 5.71055L360.548 82.8382M288.992 139.061L288.991 208.667L366.871 253.219L432.752 215.183L432.751 201.373M222.754 93.9398L283.034 128.742L360.87 83.8034L360.871 64.2603M150.398 -37.9539L210.678 -3.15104L210.322 86.5701L150.355 121.192M0.680101 -124.395L66.5611 -162.431L144.44 -117.878L144.44 -48.2731L66.6035 -3.33389L58.9713 -7.73962" stroke="url(#paint0_linear_1_174556)" stroke-opacity="0.3" stroke-miterlimit="10" stroke-linecap="square"/>
<defs>
<linearGradient id="paint0_linear_1_174556" x1="406.844" y1="302.565" x2="75.0623" y2="-271.772" gradientUnits="userSpaceOnUse">
<stop stop-color="white"/>
<stop offset="1" stop-color="white" stop-opacity="0"/>
</linearGradient>
</defs>
</svg>
