<svg width="22" height="19" viewBox="0 0 22 19" fill="none" xmlns="http://www.w3.org/2000/svg">
<g clip-path="url(#clip0_353_16596)">
<path d="M6.43357 10.987L4.42838 3.72582C4.40039 3.64935 4.38613 3.56853 4.38623 3.4871C4.38623 3.10383 4.69725 2.79281 5.08052 2.79281H21.0171C21.0718 2.79446 21.1272 2.80086 21.1826 2.81456C21.554 2.90589 21.781 3.28111 21.6896 3.65255L19.8931 10.9211C19.8369 11.2479 19.5519 11.4968 19.209 11.4968H7.10068V11.4947C6.79708 11.4949 6.51833 11.2937 6.43357 10.987Z" fill="white"/>
<path fill-rule="evenodd" clip-rule="evenodd" d="M5.08057 3.4871L7.10073 10.8026H19.209L21.0171 3.4871H5.08057Z" fill="white"/>
<path fill-rule="evenodd" clip-rule="evenodd" d="M16.9657 15.6068C17.9028 15.6068 18.6622 16.3662 18.6622 17.3034C18.6622 18.2404 17.9028 19 16.9657 19C16.0287 19 15.269 18.2404 15.269 17.3034C15.269 16.3662 16.0287 15.6068 16.9657 15.6068ZM9.52732 15.6068C10.4643 15.6068 11.224 16.3662 11.224 17.3034C11.224 18.2404 10.4643 19 9.52732 19C8.5902 19 7.83057 18.2404 7.83057 17.3034C7.83057 16.3662 8.5902 15.6068 9.52732 15.6068Z" fill="white"/>
<path d="M0.694121 1.38824C0.310849 1.38824 0 1.07739 0 0.694121C0 0.310849 0.310849 0 0.694121 0H2.50057L2.5699 0.00347696C3.20093 0.0149679 3.77522 0.138655 4.25826 0.439285C4.78693 0.768239 5.18157 1.28139 5.38985 2.04747C6.09173 5.05712 7.05832 8.07152 7.78077 11.0819C8.08203 12.2728 8.33034 12.8859 8.72069 13.1482C9.06135 13.377 9.62538 13.4258 10.5131 13.4227C10.8742 13.4215 11.2262 13.4141 11.5871 13.4141H19.0163C19.3996 13.4141 19.7104 13.7249 19.7104 14.1082C19.7104 14.4915 19.3996 14.8023 19.0163 14.8023H11.5545C11.2114 14.8023 10.8747 14.8048 10.5317 14.8055C9.36079 14.8086 8.58569 14.7245 7.9505 14.2977C7.21457 13.8035 6.82685 12.9636 6.43662 11.418L4.05032 2.41068C3.9425 2.01371 3.76072 1.76197 3.52628 1.61611C3.27488 1.45969 2.93999 1.39384 2.5526 1.38629L2.50057 1.38824H0.694121Z" fill="white"/>
<path d="M0 0.694121C0 0.310849 0.310849 0 0.694121 0H2.50057L2.5699 0.00347696C3.20093 0.0149679 3.77522 0.138655 4.25826 0.439285C4.78693 0.76824 5.18157 1.28139 5.38985 2.04747C6.09173 5.05712 7.05832 8.07152 7.78077 11.0819C8.08203 12.2728 8.33034 12.8859 8.72069 13.1482C9.06182 13.3774 9.62704 13.426 10.5171 13.4227C10.8763 13.4215 11.2267 13.4141 11.5858 13.4141H19.0163C19.3996 13.4141 19.7104 13.7249 19.7104 14.1082H11.035C8.37974 14.155 7.80036 13.9867 7.10904 11.2499L4.72011 2.22907C4.40383 1.06573 3.56893 0.700396 2.50057 0.694121H0Z" fill="white"/>
</g>
<defs>
<clipPath id="clip0_353_16596">
<rect width="21.7098" height="19" fill="white"/>
</clipPath>
</defs>
</svg>
