<svg width="37" height="44" viewBox="0 0 37 44" fill="none" xmlns="http://www.w3.org/2000/svg">
<path d="M24.9863 0.257813C24.8145 0.103841 24.571 0 24.3311 0C24.2809 0 24.2272 0 24.1771 0.0179036H2.18424C1.59701 0.0179036 1.04199 0.261393 0.644531 0.658854C0.24349 1.05632 0 1.59342 0 2.19857V41.8193C0 42.4245 0.24349 42.9616 0.640951 43.3591C1.03841 43.7565 1.57552 44 2.18066 44C13.2917 44 23.4323 44 34.486 44C35.0911 44 35.6283 43.7565 36.0257 43.3591C36.4232 42.9616 36.6667 42.4245 36.6667 41.8193V12.7188C36.6846 12.6328 36.7025 12.5648 36.7025 12.4753C36.7025 12.1816 36.5628 11.9202 36.3731 11.7305L25.1081 0.329427C25.0723 0.29362 25.0544 0.279297 25.0221 0.261393H24.9863V0.257813ZM17.3701 29.9886V17.4954C17.3701 16.9619 17.7998 16.5322 18.3477 16.5322C18.8812 16.5322 19.3252 16.9619 19.3252 17.4954V29.9779L23.8083 26.0641C24.2057 25.7132 24.818 25.7454 25.1689 26.1429C25.5199 26.5404 25.4876 27.1419 25.0902 27.4928L18.9958 32.8138C18.6198 33.1432 18.0648 33.1325 17.7031 32.8031L11.6195 27.4893C11.222 27.1383 11.1755 26.5368 11.5407 26.1393C11.8916 25.7419 12.5039 25.7096 12.9014 26.0605L17.3844 29.9743L17.3701 29.9886ZM23.3428 1.97298V10.5059C23.3428 11.3187 23.6722 12.0635 24.2093 12.6006C24.7464 13.1377 25.4912 13.4671 26.304 13.4671H34.6794V41.8229C34.6794 41.8766 34.6615 41.9447 34.6113 41.9769C34.5755 42.0127 34.5254 42.0449 34.4574 42.0449C25.6595 42.0449 10.7243 42.0449 2.16634 42.0449C2.11263 42.0449 2.0446 42.027 2.01237 41.9769C1.97656 41.9411 1.94434 41.8731 1.94434 41.8229V2.19857C1.94434 2.13053 1.96224 2.07682 2.01237 2.0446C2.04818 2.00879 2.09831 1.97656 2.16634 1.97656H23.3285H23.3428V1.97298ZM25.2979 10.5059V3.35872L33.3438 11.5085H26.3005C26.0247 11.5085 25.7813 11.3867 25.5915 11.2148C25.4196 11.0394 25.2979 10.7816 25.2979 10.5059Z" fill="white"/>
</svg>
