<svg width="24" height="24" viewBox="0 0 24 24" fill="none" xmlns="http://www.w3.org/2000/svg">
<path d="M1.71349 0H22.2863C22.7584 0 23.1869 0.192578 23.4971 0.502734C23.8074 0.812891 23.9998 1.2416 23.9998 1.71348V22.2863C23.9998 22.7582 23.8074 23.1867 23.4971 23.4971C23.1869 23.8072 22.7584 23.9998 22.2863 23.9998H1.71349C1.24161 23.9998 0.812897 23.8072 0.502738 23.4971C0.19258 23.1869 0 22.7582 0 22.2863V1.71348C0 1.24141 0.19258 0.812891 0.502738 0.502734C0.812897 0.192578 1.24161 0 1.71349 0ZM15.7324 7.2834C16.004 7.01152 16.4447 7.01152 16.7165 7.2834C16.9884 7.55527 16.9884 7.9959 16.7165 8.26777L12.9843 11.9998L16.7165 15.732C16.9884 16.0039 16.9884 16.4443 16.7165 16.7164C16.4447 16.9883 16.004 16.9883 15.7324 16.7164L11.9999 12.9842L8.26765 16.7166C7.99577 16.9885 7.55514 16.9885 7.28326 16.7166C7.01139 16.4445 7.01139 16.0041 7.28326 15.7322L11.0155 12L7.28346 8.26777C7.01158 7.9959 7.01158 7.55527 7.28346 7.2834C7.55534 7.01152 7.99596 7.01152 8.26784 7.2834L11.9999 11.0156L15.7324 7.2834ZM22.2863 1.39238H1.71349C1.62579 1.39238 1.54572 1.42871 1.48712 1.48711C1.42853 1.5457 1.3922 1.62578 1.3922 1.71348V22.2863C1.3922 22.3738 1.42853 22.4541 1.48712 22.5127C1.54572 22.5711 1.62579 22.6074 1.71349 22.6074H22.2863C22.374 22.6074 22.4543 22.5709 22.5127 22.5127C22.5713 22.4541 22.6076 22.3738 22.6076 22.2863V1.71348C22.6076 1.62578 22.5711 1.5457 22.5127 1.48711C22.4545 1.42871 22.3742 1.39238 22.2863 1.39238Z" fill="white" fill-opacity="0.3"/>
</svg>
