<svg width="32" height="31" viewBox="0 0 32 31" fill="none" xmlns="http://www.w3.org/2000/svg">
<path d="M13.0178 0H13.022V0.00181137C16.6155 0.00284643 19.8694 1.45116 22.2241 3.79145C24.5749 6.12837 26.0312 9.35882 26.0335 12.9267H26.0354V12.9352V12.9456H26.0335C26.0322 14.3836 25.7947 15.7674 25.358 17.0579C25.2848 17.2745 25.2083 17.4825 25.1296 17.6813V17.6831C24.7531 18.6302 24.2663 19.5255 23.6851 20.3502L31.2586 27.1141L31.2633 27.1182L31.3042 27.156L31.307 27.1589C31.7346 27.5633 31.9674 28.1049 31.9969 28.6545C32.0255 29.1979 31.8555 29.7538 31.4815 30.1996L31.4786 30.2038L31.4331 30.2563L31.424 30.2654L31.3859 30.3068L31.3818 30.3122C30.9742 30.7371 30.4302 30.9679 29.8765 30.9969C29.3304 31.0256 28.7705 30.8572 28.3216 30.4851L28.3177 30.4822L28.2646 30.4369L28.257 30.4307L20.5108 23.5128C20.2817 23.6733 20.0478 23.8257 19.8111 23.9696C19.49 24.1649 19.1574 24.3489 18.8181 24.5169C17.0736 25.3817 15.1022 25.8681 13.0181 25.8681V25.8699H13.0139V25.8681C9.42039 25.8671 6.16594 24.4188 3.81123 22.0785C1.45965 19.7416 0.0041667 16.5106 0.00182293 12.9438H0V12.9352V12.9311H0.00182293C0.00286461 9.36037 1.46043 6.12656 3.81566 3.78679C6.1675 1.45116 9.41857 0.00414027 13.0092 0.00181137V0H13.0178ZM13.022 2.90078V2.90259H13.0178H13.0092V2.90078C10.2264 2.90259 7.70397 4.02641 5.87791 5.84011C4.05212 7.6538 2.92008 10.1628 2.91929 12.9314H2.92112V12.9355V12.944H2.91929C2.92112 15.7092 4.05133 18.2143 5.87739 20.0293C7.70267 21.8438 10.2277 22.9687 13.0136 22.9692V22.9674H13.0178H13.0264V22.9692C15.8092 22.9674 18.3306 21.8441 20.1572 20.0298C21.983 18.2161 23.115 15.7079 23.1156 12.9396H23.114V12.9355V12.927H23.1156C23.114 10.1618 21.9827 7.65536 20.1577 5.84088C18.3324 4.02641 15.8082 2.90155 13.022 2.90078Z" fill="white"/>
</svg>
