<svg width="44" height="44" viewBox="0 0 44 44" fill="none" xmlns="http://www.w3.org/2000/svg">
<path d="M31.9275 26.3671C31.383 26.0939 28.7045 24.7776 28.2058 24.5942C27.7053 24.4127 27.3423 24.3229 26.9775 24.8692C26.6163 25.4137 25.5713 26.6402 25.2542 27.0032C24.937 27.3681 24.618 27.4121 24.0735 27.1407C23.529 26.8657 21.7727 26.2919 19.6918 24.4366C18.073 22.9919 16.9785 21.2081 16.6613 20.6617C16.3442 20.1172 16.6283 19.8221 16.8997 19.5507C17.1453 19.3069 17.446 18.9146 17.7173 18.5974C17.9905 18.2784 18.0803 18.0511 18.2637 17.6862C18.4452 17.3232 18.3553 17.0061 18.2178 16.7329C18.0803 16.4597 16.9913 13.7776 16.5385 12.6867C16.0948 11.6252 15.6457 11.7701 15.312 11.7517C14.9948 11.7371 14.6318 11.7334 14.267 11.7334C13.904 11.7334 13.3137 11.8691 12.815 12.4154C12.3163 12.9599 10.9083 14.2781 10.9083 16.9602C10.9083 19.6406 12.8608 22.2311 13.1322 22.5959C13.4053 22.9589 16.9748 28.4626 22.44 30.8221C23.7398 31.3831 24.7537 31.7186 25.5457 31.9679C26.851 32.3841 28.039 32.3254 28.9758 32.1842C30.0227 32.0284 32.1988 30.8661 32.6535 29.5937C33.1082 28.3214 33.1082 27.2306 32.9707 27.0032C32.835 26.7759 32.4738 26.6402 31.9275 26.3671ZM21.9872 39.9392H21.9798C18.7344 39.9395 15.5486 39.0669 12.7563 37.4129L12.0945 37.0206L5.236 38.8209L7.06567 32.1329L6.63483 31.4472C4.82064 28.5584 3.86089 25.2152 3.8665 21.8039C3.86833 11.8122 11.9992 3.68324 21.9945 3.68324C26.8345 3.68324 31.3848 5.57158 34.8058 8.99624C36.4937 10.6767 37.8316 12.6752 38.742 14.8762C39.6524 17.0771 40.1173 19.4368 40.1097 21.8186C40.1042 31.8102 31.9752 39.9392 21.9872 39.9392ZM37.411 6.39474C35.391 4.36143 32.9876 2.74923 30.34 1.65154C27.6924 0.553859 24.8533 -0.00747312 21.9872 7.51255e-05C9.96967 7.51255e-05 0.188833 9.78091 0.183333 21.8021C0.183333 25.6447 1.18617 29.3957 3.09467 32.7012L0 44.0001L11.5592 40.9677C14.7558 42.7093 18.3378 43.622 21.978 43.6224H21.9872C34.0028 43.6224 43.7855 33.8416 43.791 21.8186C43.7999 18.9536 43.2406 16.1153 42.1455 13.4678C41.0504 10.8203 39.4412 8.4163 37.411 6.39474Z" fill="white" fill-opacity="0.2"/>
</svg>
