<svg width="44" height="44" viewBox="0 0 44 44" fill="none" xmlns="http://www.w3.org/2000/svg">
<path d="M43.0797 6.87191C42.8311 5.543 42.3409 4.3301 41.6581 3.35468C40.9754 2.37925 40.124 1.67554 39.1893 1.31402C35.7592 3.10184e-07 22 0 22 0C22 0 8.24083 3.10184e-07 4.80883 1.31402C3.87458 1.67618 3.02371 2.38015 2.34131 3.35551C1.65891 4.33087 1.16892 5.54343 0.920333 6.87191C0 11.7741 0 22 0 22C0 22 0 32.2259 0.920333 37.1281C1.16891 38.457 1.65912 39.6699 2.34188 40.6453C3.02465 41.6208 3.87599 42.3245 4.81067 42.686C8.24083 44 22 44 22 44C22 44 35.7592 44 39.1912 42.686C40.1259 42.3247 40.9774 41.6211 41.6602 40.6456C42.3429 39.6701 42.8331 38.4571 43.0815 37.1281C44 32.2259 44 22 44 22C44 22 44 11.7741 43.0797 6.87191ZM17.4992 31.284V12.716L28.9997 22L17.4992 31.284Z" fill="white" fill-opacity="0.2"/>
</svg>
