<svg width="44" height="44" viewBox="0 0 44 44" fill="none" xmlns="http://www.w3.org/2000/svg">
<path d="M17.3965 0.0055L18.733 0H25.267L26.6053 0.0055L28.281 0.0238333L29.0748 0.0366667L29.8412 0.0568333L30.58 0.0825L31.2913 0.111833L31.977 0.150333L32.637 0.196167L33.2695 0.251167L33.88 0.311667C37.07 0.671 39.2572 1.441 40.9072 3.091C42.5572 4.741 43.3272 6.92633 43.6865 10.1182L43.7488 10.7287L43.802 11.363L43.8478 12.023L43.8845 12.7068L43.9303 13.7848L43.9523 14.5365L43.9762 15.7172L43.9927 17.3947L44 19.1913L43.9982 25.2652L43.9927 26.6035L43.9743 28.2792L43.9615 29.073L43.9413 29.8393L43.9157 30.5782L43.8863 31.2895L43.8478 31.9752L43.802 32.6352L43.747 33.2677L43.6865 33.8782C43.3272 37.0682 42.5572 39.2553 40.9072 40.9053C39.2572 42.5553 37.0718 43.3253 33.88 43.6847L33.2695 43.747L32.6352 43.8002L31.9752 43.846L31.2913 43.8827L30.2133 43.9285L29.4617 43.9505L28.281 43.9743L26.6035 43.9908L24.8068 43.9982L18.733 43.9963L17.3947 43.9908L15.719 43.9725L14.9252 43.9597L14.1588 43.9395L13.42 43.9138L12.7087 43.8845L12.023 43.846L11.363 43.8002L10.7305 43.7452L10.12 43.6847C6.93 43.3253 4.74283 42.5553 3.09283 40.9053C1.44283 39.2553 0.672833 37.07 0.3135 33.8782L0.251167 33.2677L0.198 32.6333L0.152167 31.9733L0.1155 31.2895L0.0696667 30.2115L0.0476667 29.4598L0.0238333 28.2792L0.00733333 26.6017L0 24.805L0.00183333 18.7312L0.00733333 17.3928L0.0256667 15.7172L0.0385 14.9233L0.0586667 14.157L0.0843333 13.4182L0.113667 12.7068L0.152167 12.0212L0.198 11.3612L0.253 10.7287L0.3135 10.1182C0.672833 6.92817 1.44283 4.741 3.09283 3.091C4.74283 1.441 6.92817 0.671 10.12 0.311667L10.7305 0.249333L11.3648 0.196167L12.0248 0.150333L12.7087 0.113667L13.7867 0.0678333L14.5383 0.0458333L15.719 0.022L17.3965 0.0055ZM12.4483 13.3815H7.425C7.66333 24.8215 13.3833 31.6965 23.4117 31.6965H23.98V25.1515C27.665 25.5182 30.4517 28.2132 31.57 31.6965H36.7767C35.3467 26.4898 31.5883 23.6115 29.2417 22.5115C31.5883 21.1548 34.8883 17.8548 35.6767 13.3815H30.9467C29.92 17.0115 26.8767 20.3115 23.98 20.6232V13.3815H19.25V26.0682C16.3167 25.3348 12.6133 21.7782 12.4483 13.3815Z" fill="white" fill-opacity="0.2"/>
</svg>
