<svg width="645" height="110" viewBox="0 0 645 110" fill="none" xmlns="http://www.w3.org/2000/svg">
<path d="M527.905 110L523.342 84.4226L497.722 110H447.404L501.153 60.3926L489.058 10.7854H538.732L543.218 36.3712L568.915 10.7854H618.584L565.475 60.3926L578.134 110H527.905Z" fill="url(#paint0_linear_1_174548)" fill-opacity="0.03"/>
<path d="M441.337 110H396.26L437.273 10.7854H482.347L441.337 110Z" fill="url(#paint1_linear_1_174548)" fill-opacity="0.03"/>
<path d="M346.1 110H288.226L286.49 10.7854H335.438L331.959 74.502L381.08 10.7854H429.944L346.1 110Z" fill="url(#paint2_linear_1_174548)" fill-opacity="0.03"/>
<path d="M146.85 89.9128L213.138 10.7854H274.636L275.885 110H229.442L229.824 94.2711H189.173L176.554 110H139.242M230.368 68.6132L231.017 42.3278L209.847 68.6132H230.368Z" fill="url(#paint3_linear_1_174548)" fill-opacity="0.03"/>
<path d="M173.659 10.7854L132.649 110H84.0272L65.1253 63.2247L45.7925 110H0.714844L41.7246 10.7854H90.4231L109.16 57.7683L128.581 10.7854H173.659Z" fill="url(#paint4_linear_1_174548)" fill-opacity="0.03"/>
<path d="M635.503 1.20404C640.111 1.20404 643.86 5.15108 643.86 10.0012C643.86 14.8512 640.111 18.7983 635.503 18.7983C630.895 18.7983 627.146 14.8512 627.146 10.0012C627.146 5.15108 630.895 1.20404 635.503 1.20404ZM635.503 0C630.259 0 626.006 4.47698 626.006 9.99691C626.006 15.5168 630.259 19.9938 635.503 19.9938C640.747 19.9938 645 15.5168 645 9.99691C645 4.47698 640.747 0 635.503 0Z" fill="url(#paint5_linear_1_174548)" fill-opacity="0.03"/>
<path d="M632.771 14.8806V5.40088H636.046C636.731 5.40088 637.234 5.48991 637.56 5.66373C637.887 5.84179 638.152 6.13433 638.362 6.54557C638.571 6.95681 638.676 7.43588 638.676 7.97855C638.676 8.69503 638.499 9.27162 638.144 9.71677C637.79 10.1619 637.274 10.4417 636.598 10.5647C636.872 10.7385 637.081 10.9123 637.226 11.0904C637.516 11.4508 637.774 11.8535 637.995 12.2987L639.284 14.8806H638.056L637.073 12.9092C636.69 12.1376 636.404 11.6203 636.207 11.349C636.01 11.0777 635.824 10.8996 635.643 10.8063C635.462 10.7131 635.208 10.6664 634.878 10.6664H633.75V14.8763H632.771V14.8806ZM633.75 9.58534H635.853C636.312 9.58534 636.658 9.52599 636.896 9.41153C637.133 9.29706 637.323 9.11051 637.46 8.86037C637.601 8.61024 637.669 8.31771 637.669 7.98702C637.669 7.50795 637.536 7.13063 637.27 6.85929C637.005 6.58372 636.61 6.44805 636.086 6.44805H633.75V9.58534Z" fill="url(#paint6_linear_1_174548)" fill-opacity="0.03"/>
<defs>
<linearGradient id="paint0_linear_1_174548" x1="447.404" y1="60.3927" x2="618.584" y2="60.3927" gradientUnits="userSpaceOnUse">
<stop stop-color="white"/>
<stop offset="1" stop-color="white" stop-opacity="0"/>
</linearGradient>
<linearGradient id="paint1_linear_1_174548" x1="396.26" y1="60.3927" x2="482.347" y2="60.3927" gradientUnits="userSpaceOnUse">
<stop stop-color="white"/>
<stop offset="1" stop-color="white" stop-opacity="0"/>
</linearGradient>
<linearGradient id="paint2_linear_1_174548" x1="286.49" y1="60.3927" x2="429.944" y2="60.3927" gradientUnits="userSpaceOnUse">
<stop stop-color="white"/>
<stop offset="1" stop-color="white" stop-opacity="0"/>
</linearGradient>
<linearGradient id="paint3_linear_1_174548" x1="139.242" y1="60.3927" x2="275.885" y2="60.3927" gradientUnits="userSpaceOnUse">
<stop stop-color="white"/>
<stop offset="1" stop-color="white" stop-opacity="0"/>
</linearGradient>
<linearGradient id="paint4_linear_1_174548" x1="0.714844" y1="60.3927" x2="173.659" y2="60.3927" gradientUnits="userSpaceOnUse">
<stop stop-color="white"/>
<stop offset="1" stop-color="white" stop-opacity="0"/>
</linearGradient>
<linearGradient id="paint5_linear_1_174548" x1="626.006" y1="9.99692" x2="645" y2="9.99692" gradientUnits="userSpaceOnUse">
<stop stop-color="white"/>
<stop offset="1" stop-color="white" stop-opacity="0"/>
</linearGradient>
<linearGradient id="paint6_linear_1_174548" x1="632.771" y1="10.1407" x2="639.284" y2="10.1407" gradientUnits="userSpaceOnUse">
<stop stop-color="white"/>
<stop offset="1" stop-color="white" stop-opacity="0"/>
</linearGradient>
</defs>
</svg>
