<svg width="200" height="48" viewBox="0 0 200 48" fill="none" xmlns="http://www.w3.org/2000/svg">
<path d="M163.649 32.4376L162.232 24.8936L154.28 32.4376H138.661L155.346 17.8085L151.59 3.17935H167.01L168.402 10.7234L176.382 3.17935H191.799L175.312 17.8085L179.241 32.4376H163.649Z" fill="white"/>
<path d="M136.778 32.4376H122.785L135.515 3.17935H149.508L136.778 32.4376Z" fill="white"/>
<path d="M107.214 32.4376H89.2475L88.709 3.17935H103.903L102.824 21.9704L118.071 3.17935H133.239L107.214 32.4376Z" fill="white"/>
<path d="M45.3628 26.5143L65.9392 3.17935H85.0302L85.4175 32.4376H71.0004L71.1198 27.7982H58.5013L54.5833 32.4376H43.002M71.2896 20.233L71.4912 12.482L64.918 20.233H71.2896Z" fill="white"/>
<path d="M53.6839 3.17935L40.9539 32.4376H25.8605L19.9955 18.6441L13.9926 32.4376H0L12.73 3.17935H27.8473L33.6645 17.0339L39.6913 3.17935H53.6839Z" fill="white"/>
<path d="M197.05 0.750689C198.263 0.750689 199.247 1.73481 199.247 2.94705C199.247 4.15929 198.263 5.14341 197.05 5.14341C195.838 5.14341 194.854 4.15929 194.854 2.94705C194.854 1.73481 195.838 0.750689 197.05 0.750689ZM197.05 0C195.422 0 194.101 1.321 194.101 2.9497C194.101 4.5784 195.422 5.8994 197.05 5.8994C198.679 5.8994 200 4.5784 200 2.9497C200 1.321 198.679 0 197.05 0Z" fill="white"/>
<path d="M196.201 4.38707V1.59122H197.217C197.429 1.59122 197.586 1.61775 197.687 1.66814C197.787 1.7212 197.87 1.80608 197.936 1.9281C198 2.05012 198.034 2.19071 198.034 2.34986C198.034 2.55942 197.978 2.73184 197.87 2.86182C197.761 2.9918 197.599 3.07668 197.39 3.11116C197.474 3.16156 197.541 3.21461 197.583 3.26767C197.673 3.37377 197.753 3.49314 197.822 3.62312L198.222 4.38441H197.84L197.535 3.80349C197.416 3.57537 197.329 3.42417 197.268 3.34459C197.207 3.26501 197.148 3.21196 197.092 3.18544C197.037 3.15891 196.957 3.14299 196.856 3.14299H196.506V4.38441H196.204L196.201 4.38707ZM196.506 2.82468H197.159C197.302 2.82468 197.408 2.80877 197.482 2.77428C197.557 2.7398 197.615 2.68675 197.657 2.61247C197.7 2.5382 197.721 2.45332 197.721 2.35517C197.721 2.21458 197.679 2.10317 197.596 2.02359C197.514 1.94402 197.392 1.90157 197.228 1.90157H196.504V2.82733L196.506 2.82468Z" fill="white"/>
<path d="M137.247 38.0334H126.098C125.125 38.0334 124.289 38.3942 123.592 39.1183C122.894 39.8425 122.546 40.7072 122.546 41.7179C122.546 42.7285 122.894 43.5933 123.592 44.3174C124.289 45.0416 125.125 45.4023 126.098 45.4023H138.786L137.247 47.299H126.098C125.369 47.299 124.674 47.1504 124.008 46.8533C123.342 46.5562 122.769 46.1583 122.294 45.665C121.82 45.1716 121.435 44.5774 121.148 43.8877C120.862 43.198 120.719 42.4739 120.719 41.7179C120.719 40.7072 120.96 39.7762 121.44 38.9194C121.923 38.0626 122.576 37.3862 123.401 36.8848C124.226 36.3861 125.125 36.1341 126.098 36.1341H138.786L137.247 38.0308V38.0334Z" fill="white"/>
<path d="M140.276 36.1357H142.107V40.1385C142.107 40.5099 142.197 40.86 142.375 41.1837C142.555 41.5073 142.799 41.7646 143.112 41.9503C143.425 42.136 143.759 42.2288 144.12 42.2288H153.961V36.1357H155.776V42.2288H158.343V44.1254H155.776V47.2979H153.961V44.1254H144.12C143.064 44.1254 142.16 43.7355 141.406 42.953C140.653 42.1704 140.276 41.2288 140.276 40.1226V36.1357Z" fill="white"/>
<path d="M162.732 39.3887H160.901C160.901 38.4948 161.209 37.7308 161.824 37.0915C162.44 36.4549 163.177 36.1339 164.039 36.1339H174.788C175.65 36.1339 176.387 36.4523 177.003 37.0915C177.618 37.7308 177.926 38.4948 177.926 39.3887C177.926 40.1553 177.69 40.8344 177.218 41.4312C177.607 41.7495 177.91 42.1368 178.125 42.5877C178.34 43.0387 178.448 43.5215 178.448 44.0308C178.448 44.9247 178.138 45.6913 177.517 46.3359C176.897 46.9805 176.156 47.3014 175.294 47.3014H163.53C162.668 47.3014 161.928 46.9805 161.307 46.3359C160.686 45.6939 160.376 44.9247 160.376 44.0308H162.206C162.206 44.4021 162.336 44.7257 162.599 44.9963C162.861 45.2669 163.169 45.4022 163.53 45.4022H175.278C175.647 45.4022 175.963 45.2669 176.225 44.9963C176.488 44.7257 176.618 44.4021 176.618 44.0228C176.618 43.6435 176.488 43.3199 176.225 43.0493C175.963 42.7787 175.65 42.6434 175.278 42.6434H164.729V40.7468H174.788C175.013 40.7468 175.228 40.6858 175.435 40.5638C175.639 40.4418 175.801 40.2773 175.92 40.0704C176.037 39.8635 176.098 39.638 176.098 39.3914C176.098 39.02 175.971 38.7017 175.713 38.4338C175.456 38.1685 175.148 38.0359 174.79 38.0359H164.042C163.684 38.0359 163.376 38.1685 163.119 38.4338C162.862 38.699 162.734 39.02 162.734 39.3914L162.732 39.3887Z" fill="white"/>
</svg>
