<svg width="200" height="48" viewBox="0 0 200 48" fill="none" xmlns="http://www.w3.org/2000/svg">
<path d="M163.648 32.4389L162.231 24.8949L154.279 32.4389H138.66L155.345 17.8098L151.589 3.18057H167.009L168.401 10.7246L176.381 3.18057H191.798L175.312 17.8098L179.24 32.4389H163.648Z" fill="white"/>
<path d="M136.778 32.4389H122.785L135.515 3.18057H149.508L136.778 32.4389Z" fill="white"/>
<path d="M107.214 32.4389H89.2475L88.709 3.18057H103.903L102.824 21.9717L118.071 3.18057H133.239L107.214 32.4389Z" fill="white"/>
<path d="M45.3628 26.5157L65.9392 3.18057H85.0302L85.4175 32.4389H71.0004L71.1198 27.7995H58.5012L54.5833 32.4389H43.002M71.2896 20.2343L71.4912 12.4833L64.9179 20.2343H71.2896Z" fill="white"/>
<path d="M53.6838 3.18057L40.9539 32.4389H25.8604L19.9955 18.6453L13.9926 32.4389H0L12.7299 3.18057H27.8473L33.6645 17.0352L39.6912 3.18057H53.6838Z" fill="white"/>
<path d="M197.049 0.750691C198.262 0.750691 199.246 1.73481 199.246 2.94706C199.246 4.15931 198.262 5.14343 197.049 5.14343C195.837 5.14343 194.853 4.15931 194.853 2.94706C194.853 1.73481 195.837 0.750691 197.049 0.750691ZM197.049 0C195.421 0 194.1 1.32101 194.1 2.94971C194.1 4.57842 195.421 5.89942 197.049 5.89942C198.678 5.89942 199.999 4.57842 199.999 2.94971C199.999 1.32101 198.678 0 197.049 0Z" fill="white"/>
<path d="M196.201 4.38766V1.5918H197.217C197.429 1.5918 197.586 1.61833 197.687 1.66873C197.787 1.72178 197.87 1.80666 197.936 1.92868C198 2.0507 198.034 2.19129 198.034 2.35045C198.034 2.56 197.978 2.73242 197.87 2.8624C197.761 2.99238 197.599 3.07726 197.39 3.11175C197.474 3.16215 197.541 3.2152 197.583 3.26825C197.673 3.37436 197.753 3.49372 197.822 3.6237L198.222 4.385H197.84L197.535 3.80408C197.416 3.57595 197.329 3.42476 197.268 3.34518C197.207 3.2656 197.148 3.21255 197.092 3.18602C197.037 3.1595 196.957 3.14358 196.856 3.14358H196.506V4.385H196.204L196.201 4.38766ZM196.506 2.82527H197.159C197.302 2.82527 197.408 2.80935 197.482 2.77487C197.557 2.74038 197.615 2.68733 197.657 2.61306C197.7 2.53878 197.721 2.4539 197.721 2.35575C197.721 2.21516 197.679 2.10375 197.596 2.02417C197.514 1.9446 197.392 1.90215 197.228 1.90215H196.504V2.82792L196.506 2.82527Z" fill="white"/>
<path d="M136.817 38.0334H123.084V40.7762H136.618L135.095 42.6569H123.084V47.299H121.254V36.1341H138.355L136.817 38.0307V38.0334Z" fill="white"/>
<path d="M139.615 36.1365H141.446V40.1393C141.446 40.5107 141.536 40.8608 141.713 41.1845C141.894 41.5081 142.138 41.7654 142.451 41.9511C142.764 42.1368 143.098 42.2296 143.459 42.2296H153.3V36.1365H155.115V42.2296H157.682V44.1262H155.115V47.2988H153.3V44.1262H143.459C142.403 44.1262 141.499 43.7363 140.745 42.9538C139.992 42.1712 139.615 41.2296 139.615 40.1234V36.1365Z" fill="white"/>
<path d="M162.066 39.3889H160.236C160.236 38.4949 160.544 37.731 161.159 37.0917C161.775 36.4551 162.512 36.1341 163.374 36.1341H174.123C174.985 36.1341 175.722 36.4524 176.338 37.0917C176.953 37.731 177.261 38.4949 177.261 39.3889C177.261 40.1555 177.025 40.8345 176.552 41.4314C176.942 41.7497 177.245 42.137 177.46 42.5879C177.675 43.0389 177.783 43.5216 177.783 44.0309C177.783 44.9249 177.473 45.6915 176.852 46.3361C176.231 46.9806 175.491 47.3016 174.629 47.3016H162.865C162.003 47.3016 161.263 46.9806 160.642 46.3361C160.021 45.6941 159.711 44.9249 159.711 44.0309H161.541C161.541 44.4023 161.671 44.7259 161.934 44.9965C162.196 45.2671 162.504 45.4023 162.865 45.4023H174.613C174.982 45.4023 175.298 45.2671 175.56 44.9965C175.823 44.7259 175.953 44.4023 175.953 44.023C175.953 43.6437 175.823 43.32 175.56 43.0495C175.298 42.7789 174.985 42.6436 174.613 42.6436H164.064V40.747H174.123C174.348 40.747 174.563 40.686 174.77 40.564C174.974 40.4419 175.136 40.2775 175.255 40.0706C175.372 39.8637 175.433 39.6382 175.433 39.3915C175.433 39.0201 175.306 38.7018 175.048 38.4339C174.791 38.1686 174.483 38.036 174.125 38.036H163.377C163.019 38.036 162.711 38.1686 162.454 38.4339C162.196 38.6992 162.069 39.0201 162.069 39.3915L162.066 39.3889Z" fill="white"/>
</svg>
