<svg width="200" height="48" viewBox="0 0 200 48" fill="none" xmlns="http://www.w3.org/2000/svg">
<path d="M163.65 32.6599L162.234 25.1114L154.281 32.6599H138.661L155.346 18.0195L151.591 3.37923H167.011L168.404 10.9302L176.381 3.37923H191.799L175.313 18.0195L179.242 32.6599H163.65Z" fill="white"/>
<path d="M136.779 32.6599H122.786L135.518 3.37923H149.509L136.779 32.6599Z" fill="white"/>
<path d="M107.215 32.6599H89.2498L88.7109 3.37923H103.906L102.825 22.1836L118.074 3.37923H133.242L107.215 32.6599Z" fill="white"/>
<path d="M45.3637 26.7317L65.9407 3.37923H85.0312L85.4187 32.6599H71.0018L71.1206 28.0179H58.5016L54.5845 32.6599H43.002M71.2894 20.4456L71.4907 12.6882L64.9193 20.4456H71.2894Z" fill="white"/>
<path d="M53.6855 3.37923L40.9552 32.6599H25.8619L19.9944 18.8554L13.9931 32.6599H0L12.7303 3.37923H27.8474L33.6636 17.2451L39.6924 3.37923H53.6855Z" fill="white"/>
<path d="M197.052 0.551325C198.482 0.551325 199.646 1.71619 199.646 3.14757C199.646 4.57895 198.482 5.74382 197.052 5.74382C195.621 5.74382 194.457 4.57895 194.457 3.14757C194.457 1.71619 195.621 0.551325 197.052 0.551325ZM197.052 0.195984C195.424 0.195984 194.104 1.51725 194.104 3.14632C194.104 4.77538 195.424 6.09666 197.052 6.09666C198.679 6.09666 200 4.77538 200 3.14632C200 1.51725 198.679 0.195984 197.052 0.195984Z" fill="white"/>
<path d="M196.204 4.58762V1.78993H197.221C197.433 1.78993 197.589 1.81621 197.691 1.86751C197.792 1.92006 197.874 2.00639 197.939 2.12776C198.004 2.24913 198.037 2.39051 198.037 2.55067C198.037 2.76212 197.982 2.93228 197.872 3.06366C197.762 3.19504 197.602 3.27762 197.392 3.3139C197.477 3.3652 197.542 3.4165 197.587 3.46905C197.677 3.5754 197.757 3.69427 197.826 3.82564L198.226 4.58762H197.844L197.539 4.00582C197.421 3.7781 197.332 3.62545 197.271 3.54537C197.209 3.46529 197.152 3.41274 197.096 3.38522C197.039 3.35769 196.961 3.34393 196.858 3.34393H196.508V4.58637H196.204V4.58762ZM196.508 3.02487H197.161C197.303 3.02487 197.411 3.00736 197.484 2.97357C197.558 2.93979 197.617 2.88474 197.659 2.81091C197.703 2.73709 197.724 2.65076 197.724 2.55317C197.724 2.41178 197.683 2.30042 197.601 2.22035C197.518 2.13902 197.396 2.09898 197.233 2.09898H196.508V3.02487Z" fill="white"/>
<path d="M139.325 47.5327H136.449L132.066 43.7816H123.085V47.5327H121.255V36.3607H135.049C135.696 36.3607 136.292 36.5284 136.841 36.8637C137.39 37.199 137.822 37.6507 138.14 38.22C138.457 38.7893 138.616 39.4036 138.616 40.063C138.616 41.084 138.267 41.9598 137.571 42.688C136.873 43.4175 136.033 43.7816 135.049 43.7816H134.942L139.325 47.5327ZM123.085 38.26V41.8835H135.049C135.531 41.8835 135.941 41.7058 136.279 41.3492C136.618 40.9927 136.787 40.5672 136.787 40.0718C136.787 39.5763 136.618 39.1521 136.279 38.7943C135.941 38.4377 135.531 38.26 135.049 38.26H123.085Z" fill="white"/>
<path d="M140.894 36.3607H142.724V40.3671C142.724 40.7399 142.814 41.0877 142.993 41.4131C143.172 41.7371 143.418 41.9936 143.73 42.1788C144.043 42.3652 144.379 42.4578 144.738 42.4578H154.58V36.3607H156.394V42.4578H158.963V44.3571H156.394V47.5327H154.58V44.3571H144.738C143.682 44.3571 142.778 43.9655 142.024 43.1835C141.27 42.4015 140.894 41.4569 140.894 40.3508V36.3607Z" fill="white"/>
<path d="M163.346 39.6163H161.515C161.515 38.723 161.823 37.956 162.438 37.3179C163.053 36.6798 163.791 36.3607 164.652 36.3607H175.402C176.264 36.3607 177.001 36.6798 177.617 37.3179C178.232 37.956 178.539 38.723 178.539 39.6163C178.539 40.3821 178.303 41.064 177.832 41.6595C178.222 41.9786 178.524 42.364 178.739 42.8169C178.954 43.2698 179.062 43.7503 179.062 44.2608C179.062 45.1542 178.752 45.9236 178.132 46.5668C177.512 47.2111 176.77 47.5327 175.91 47.5327H164.146C163.285 47.5327 162.544 47.2111 161.924 46.5668C161.304 45.9236 160.994 45.1542 160.994 44.2608H162.825C162.825 44.6337 162.955 44.9552 163.217 45.2267C163.478 45.4982 163.788 45.6334 164.147 45.6334H175.896C176.265 45.6334 176.58 45.4982 176.843 45.2267C177.104 44.9552 177.235 44.6312 177.235 44.2533C177.235 43.8754 177.104 43.5514 176.843 43.2798C176.581 43.0083 176.266 42.8732 175.896 42.8732H165.346V40.9739H175.404C175.629 40.9739 175.845 40.9126 176.05 40.79C176.255 40.6673 176.416 40.5022 176.535 40.2957C176.653 40.088 176.711 39.8628 176.711 39.6176C176.711 39.2447 176.583 38.9257 176.327 38.6604C176.071 38.3952 175.764 38.2613 175.405 38.2613H164.655C164.296 38.2613 163.989 38.3939 163.732 38.6604C163.476 38.9269 163.347 39.246 163.347 39.6176L163.346 39.6163Z" fill="white"/>
</svg>
