<svg width="164" height="28" viewBox="0 0 164 28" fill="none" xmlns="http://www.w3.org/2000/svg">
<path d="M134.194 28L133.032 21.4894L126.511 28H113.703L127.384 15.3727L124.305 2.7454H136.95L138.092 9.25816L144.633 2.7454H157.276L143.757 15.3727L146.979 28H134.194Z" fill="white"/>
<path d="M112.158 28H100.684L111.124 2.7454H122.597L112.158 28Z" fill="white"/>
<path d="M87.916 28H73.1846L72.7427 2.7454H85.2022L84.3164 18.9642L96.8201 2.7454H109.258L87.916 28Z" fill="white"/>
<path d="M37.1981 22.8869L54.0713 2.7454H69.7254L70.0432 28H58.2214L58.3188 23.9963H47.9712L44.7592 28H35.2615M58.4572 17.4652L58.6222 10.7744L53.2337 17.4652H58.4572Z" fill="white"/>
<path d="M44.0221 2.7454L33.5833 28H21.2068L16.3954 16.0936L11.4743 28H0L10.4388 2.7454H22.8348L27.6042 14.7047L32.5478 2.7454H44.0221Z" fill="white"/>
<path d="M161.583 0.306482C162.755 0.306482 163.71 1.31118 163.71 2.54575C163.71 3.78031 162.755 4.78501 161.583 4.78501C160.41 4.78501 159.455 3.78031 159.455 2.54575C159.455 1.31118 160.41 0.306482 161.583 0.306482ZM161.583 0C160.248 0 159.165 1.1396 159.165 2.54467C159.165 3.94974 160.248 5.08934 161.583 5.08934C162.917 5.08934 164 3.94974 164 2.54467C164 1.1396 162.917 0 161.583 0Z" fill="white"/>
<path d="M160.887 3.78787V1.37486H161.721C161.895 1.37486 162.023 1.39752 162.106 1.44176C162.189 1.48709 162.257 1.56155 162.31 1.66623C162.364 1.77091 162.39 1.89286 162.39 2.03099C162.39 2.21337 162.345 2.36013 162.255 2.47345C162.165 2.58676 162.034 2.65798 161.861 2.68928C161.931 2.73353 161.984 2.77777 162.021 2.82309C162.095 2.91482 162.161 3.01735 162.217 3.13066L162.545 3.78787H162.233L161.982 3.28606C161.885 3.08965 161.812 2.95799 161.762 2.88892C161.712 2.81986 161.665 2.77453 161.618 2.75079C161.572 2.72705 161.508 2.71518 161.424 2.71518H161.137V3.78679H160.887V3.78787ZM161.137 2.43999H161.672C161.789 2.43999 161.877 2.42488 161.937 2.39575C161.998 2.36661 162.046 2.31912 162.081 2.25545C162.117 2.19178 162.134 2.11732 162.134 2.03315C162.134 1.9112 162.1 1.81515 162.033 1.74609C161.965 1.67594 161.864 1.64141 161.731 1.64141H161.137V2.43999Z" fill="white"/>
</svg>
