<svg width="1074" height="1024" viewBox="0 0 1074 1024" fill="none" xmlns="http://www.w3.org/2000/svg">
<path d="M1070.87 680.993L868.484 746.995L868.195 747.089L868.146 747.389C840.86 910.94 722.283 1043.35 566.63 1091.09L610.447 974.61H654.78L654.928 974.377L840.155 680.993H1070.87Z" stroke="white" stroke-opacity="0.2"/>
<path d="M342.518 974.146L342.553 974.609H438.5V1426.25L312.795 1092.02L312.708 1091.79L312.473 1091.72L310.754 1091.19C238.443 1068.91 174.386 1028.13 123.63 974.609H212.712L212.86 974.386L329.405 798.064L342.518 974.146Z" stroke="white" stroke-opacity="0.2"/>
<path d="M560.837 257.385L560.926 257.618L561.165 257.688C639.618 280.599 708.718 325.127 761.961 384.233H677.758L677.61 384.464L555.244 576.373L536.439 384.685L536.395 384.233H439.5V-65.251L560.837 257.385Z" stroke="white" stroke-opacity="0.2"/>
<path d="M268.377 384.22H227.87L227.722 384.447L35.1992 679.993H-192.854L7.83789 614.537L8.13379 614.44L8.17773 614.132C32.1347 443.982 154.512 305.539 315.859 257.984L268.377 384.22Z" stroke="white" stroke-opacity="0.2"/>
<path d="M490.618 434.717L519.12 725.26L519.262 726.7L520.04 725.479L705.454 434.717H935.941L626.935 924.126H389.416L368.893 648.385L368.784 646.925L367.977 648.146L185.559 924.126H-63.5859L255.227 434.717H490.618Z" stroke="white" stroke-opacity="0.2"/>
</svg>
