<svg width="955" height="815" viewBox="0 0 955 815" fill="none" xmlns="http://www.w3.org/2000/svg">
<g clip-path="url(#clip0_1_218158)">
<path d="M1266.87 471.993L1064.48 537.995L1064.2 538.089L1064.15 538.389C1036.86 701.94 918.283 834.346 762.63 882.086L806.447 765.611H850.78L850.928 765.377L1036.16 471.993H1266.87Z" stroke="white" stroke-opacity="0.2"/>
<path d="M538.518 765.147L538.553 765.61H634.5V1217.25L508.795 883.02L508.708 882.79L508.473 882.717L506.754 882.192C434.443 859.915 370.386 819.132 319.63 765.61H408.712L408.86 765.386L525.405 589.065L538.518 765.147Z" stroke="white" stroke-opacity="0.2"/>
<path d="M756.837 48.3848L756.926 48.6182L757.165 48.6885C835.618 71.5985 904.718 116.127 957.961 175.233H873.758L873.61 175.464L751.244 367.373L732.439 175.685L732.395 175.233H635.5V-274.251L756.837 48.3848Z" stroke="white" stroke-opacity="0.2"/>
<path d="M464.377 175.22H423.87L423.722 175.447L231.199 470.993H3.14648L203.838 405.537L204.134 405.44L204.178 405.132C228.135 234.982 350.512 96.5386 511.859 48.9844L464.377 175.22Z" stroke="white" stroke-opacity="0.2"/>
<path d="M686.618 225.717L715.12 516.26L715.262 517.701L716.04 516.48L901.454 225.717H1131.94L822.935 715.126H585.416L564.893 439.385L564.784 437.925L563.977 439.147L381.559 715.126H132.414L451.227 225.717H686.618Z" stroke="white" stroke-opacity="0.2"/>
</g>
<defs>
<clipPath id="clip0_1_218158">
<rect width="1270" height="1497" fill="white" transform="translate(0 -277)"/>
</clipPath>
</defs>
</svg>
