<svg width="145" height="170" viewBox="0 0 145 170" fill="none" xmlns="http://www.w3.org/2000/svg">
<path d="M118.27 84.9992L97.1049 118.343H92.0353L86.9778 131.715C104.824 126.316 118.428 111.238 121.553 92.6052L145.002 84.9992H118.271H118.27Z" fill="white"/>
<path d="M61.5412 118.343L60.0317 98.1808L46.6332 118.343H36.3601C42.2218 124.523 49.6476 129.22 58.0373 131.752L72.4999 170V118.343H61.5412Z" fill="white"/>
<path d="M83.5681 51.4126L85.7313 73.3446L99.7911 51.4126H109.502C103.404 44.6457 95.4739 39.5478 86.464 36.9308L72.5 0V51.4126H83.5681Z" fill="white"/>
<path d="M26.4276 84.9992L48.4256 51.4111H53.0589L58.5345 36.9323C40.0374 42.3084 25.9989 58.0722 23.2551 77.4552L0 84.9992H26.4276Z" fill="white"/>
<path d="M62.7742 57.032H78.4453L81.7045 90.0775L102.891 57.032H129.341L93.9887 112.723H66.7858L64.4387 81.3573L43.5946 112.723H15.0129L51.4872 57.032H62.7742Z" fill="white"/>
</svg>
