<svg width="1400" height="640" viewBox="0 0 1400 640" fill="none" xmlns="http://www.w3.org/2000/svg">
<g clip-path="url(#clip0_1_191188)">
<path d="M1396.87 320.993L1173.46 393.885L1173.17 393.979L1173.12 394.278C1143.04 574.709 1012.26 720.773 840.61 773.404L888.962 644.815H937.841L937.987 644.582L1142.19 320.993H1396.87Z" stroke="white" stroke-opacity="0.2"/>
<path d="M593.693 644.352L593.729 644.815H699.5V1143.25L560.829 774.373L560.742 774.141L560.507 774.07L558.612 773.49C478.851 748.906 408.197 703.892 352.227 644.815H450.521L450.67 644.59L579.228 450.006L593.693 644.352Z" stroke="white" stroke-opacity="0.2"/>
<path d="M834.356 -146.16L834.444 -145.927L834.685 -145.856C921.216 -120.576 997.426 -71.4294 1056.14 -6.19336H963.226L963.078 -5.96191L828.106 205.816L807.362 -5.74219L807.318 -6.19336H700.5V-502.25L834.356 -146.16Z" stroke="white" stroke-opacity="0.2"/>
<path d="M511.947 -6.20764H467.286L467.138 -5.98108L254.893 319.993H3.14551L224.687 247.703L224.983 247.606L225.027 247.297C251.444 59.5887 386.408 -93.1349 564.339 -145.559L511.947 -6.20764Z" stroke="white" stroke-opacity="0.2"/>
<path d="M756.948 49.3816L788.372 369.86L788.513 371.301L789.291 370.08L993.7 49.3816H1247.9L907.2 589.24H645.292L622.664 285.086L622.556 283.626L621.749 284.847L420.644 589.24H145.873L497.387 49.3816H756.948Z" stroke="white" stroke-opacity="0.2"/>
</g>
<defs>
<clipPath id="clip0_1_191188">
<rect width="1400" height="1651" fill="white" transform="translate(0 -505)"/>
</clipPath>
</defs>
</svg>
